<?xml version="1.0" encoding="UTF-8" standalone="no"?>
<!-- Created with Inkscape (http://www.inkscape.org/) -->

<svg
   xmlns:dc="http://purl.org/dc/elements/1.1/"
   xmlns:cc="http://creativecommons.org/ns#"
   xmlns:rdf="http://www.w3.org/1999/02/22-rdf-syntax-ns#"
   xmlns:svg="http://www.w3.org/2000/svg"
   xmlns="http://www.w3.org/2000/svg"
   xmlns:xlink="http://www.w3.org/1999/xlink"
   xmlns:sodipodi="http://sodipodi.sourceforge.net/DTD/sodipodi-0.dtd"
   xmlns:inkscape="http://www.inkscape.org/namespaces/inkscape"
   width="2567.9526"
   height="1255.5018"
   id="svg2"
   version="1.1"
   inkscape:version="0.48.2 r9819"
   sodipodi:docname="ot1.svg"
   inkscape:export-filename="/Users/matthiasbussonnier/dissertation/figs/ot1.png"
   inkscape:export-xdpi="300"
   inkscape:export-ydpi="300">
  <defs
     id="defs4">
    <linearGradient
       id="linearGradient4263">
      <stop
         style="stop-color:#ff000e;stop-opacity:1;"
         offset="0"
         id="stop4265" />
      <stop
         id="stop4271"
         offset="0.49128455"
         style="stop-color:#ff0008;stop-opacity:0.42372882;" />
      <stop
         style="stop-color:#d40003;stop-opacity:0;"
         offset="1"
         id="stop4267" />
    </linearGradient>
    <marker
       inkscape:stockid="Arrow1Mend"
       orient="auto"
       refY="0"
       refX="0"
       id="Arrow1Mend"
       style="overflow:visible">
      <path
         id="path3779"
         d="M 0,0 5,-5 -12.5,0 5,5 0,0 z"
         style="fill-rule:evenodd;stroke:#000000;stroke-width:1pt;marker-start:none"
         transform="matrix(-0.4,0,0,-0.4,-4,0)"
         inkscape:connector-curvature="0" />
    </marker>
    <linearGradient
       id="linearGradient3755">
      <stop
         style="stop-color:#dadada;stop-opacity:1;"
         offset="0"
         id="stop3757" />
      <stop
         style="stop-color:#898989;stop-opacity:1;"
         offset="1"
         id="stop3759" />
    </linearGradient>
    <radialGradient
       inkscape:collect="always"
       xlink:href="#linearGradient3755"
       id="radialGradient3761"
       cx="13.635199"
       cy="178.49939"
       fx="13.635199"
       fy="178.49939"
       r="397.24286"
       gradientUnits="userSpaceOnUse" />
    <marker
       inkscape:stockid="Arrow1Mend"
       orient="auto"
       refY="0"
       refX="0"
       id="Arrow1Mend-8"
       style="overflow:visible">
      <path
         inkscape:connector-curvature="0"
         id="path3779-4"
         d="M 0,0 5,-5 -12.5,0 5,5 0,0 z"
         style="fill-rule:evenodd;stroke:#000000;stroke-width:1pt;marker-start:none"
         transform="matrix(-0.4,0,0,-0.4,-4,0)" />
    </marker>
    <radialGradient
       inkscape:collect="always"
       xlink:href="#linearGradient4263"
       id="radialGradient4269"
       cx="-1269.5554"
       cy="160.57281"
       fx="-1269.5554"
       fy="160.57281"
       r="799.5379"
       gradientTransform="matrix(1.1994321,-0.00582056,0.00679248,1.3997038,954.41605,-1806.9229)"
       gradientUnits="userSpaceOnUse" />
    <radialGradient
       inkscape:collect="always"
       xlink:href="#linearGradient4263"
       id="radialGradient5940"
       gradientUnits="userSpaceOnUse"
       gradientTransform="matrix(1.1994321,-0.00582056,0.00679248,1.3997038,-2662.7268,313.07705)"
       cx="-1269.5554"
       cy="160.57281"
       fx="-1269.5554"
       fy="160.57281"
       r="799.5379" />
    <radialGradient
       inkscape:collect="always"
       xlink:href="#linearGradient3755"
       id="radialGradient6236"
       gradientUnits="userSpaceOnUse"
       cx="13.635199"
       cy="178.49939"
       fx="13.635199"
       fy="178.49939"
       r="397.24286" />
    <radialGradient
       inkscape:collect="always"
       xlink:href="#linearGradient3755"
       id="radialGradient6238"
       gradientUnits="userSpaceOnUse"
       cx="13.635199"
       cy="178.49939"
       fx="13.635199"
       fy="178.49939"
       r="397.24286" />
  </defs>
  <sodipodi:namedview
     id="base"
     pagecolor="#ffffff"
     bordercolor="#666666"
     borderopacity="1.0"
     inkscape:pageopacity="0.0"
     inkscape:pageshadow="2"
     inkscape:zoom="0.175"
     inkscape:cx="808.29289"
     inkscape:cy="927.45432"
     inkscape:document-units="px"
     inkscape:current-layer="layer1"
     showgrid="false"
     showguides="true"
     inkscape:guide-bbox="true"
     fit-margin-top="8"
     fit-margin-left="8"
     fit-margin-right="8"
     fit-margin-bottom="8"
     inkscape:window-width="1572"
     inkscape:window-height="889"
     inkscape:window-x="148"
     inkscape:window-y="0"
     inkscape:window-maximized="0" />
  <metadata
     id="metadata7">
    <rdf:RDF>
      <cc:Work
         rdf:about="">
        <dc:format>image/svg+xml</dc:format>
        <dc:type
           rdf:resource="http://purl.org/dc/dcmitype/StillImage" />
        <dc:title></dc:title>
      </cc:Work>
    </rdf:RDF>
  </metadata>
  <g
     inkscape:label="Layer 1"
     inkscape:groupmode="layer"
     id="layer1"
     transform="translate(5904.7964,122.68931)">
    <path
       sodipodi:type="arc"
       style="fill:url(#radialGradient3761);fill-opacity:1;stroke:#000000;stroke-width:0.2;stroke-miterlimit:4;stroke-opacity:1;stroke-dasharray:none"
       id="path2985"
       sodipodi:cx="82.85714"
       sodipodi:cy="229.50504"
       sodipodi:rx="397.14285"
       sodipodi:ry="397.14285"
       d="m 479.99999,229.50504 c 0,219.33594 -177.80691,397.14285 -397.14285,397.14285 -219.33594,0 -397.14285,-177.80691 -397.14285,-397.14285 0,-219.335946 177.80691,-397.14286 397.14285,-397.14286 219.33594,0 397.14285,177.806914 397.14285,397.14286 z"
       transform="matrix(0.709515,0,0,0.709515,-5647.0221,447.55773)" />
    <path
       style="fill:none;stroke:#ff0b00;stroke-width:24.69917488;stroke-linecap:butt;stroke-linejoin:miter;stroke-miterlimit:4;stroke-opacity:0.57522122;stroke-dasharray:none"
       d="m -5818.2942,1124.7996 0,-356.7228 111.0169,-414.32065 237.0116,-392.534212"
       id="path3763"
       inkscape:connector-curvature="0"
       sodipodi:nodetypes="cccc" />
    <path
       style="fill:none;stroke:#000000;stroke-width:9.93921661;stroke-linecap:butt;stroke-linejoin:miter;stroke-miterlimit:4;stroke-opacity:1;stroke-dasharray:none;marker-end:url(#Arrow1Mend)"
       d="m -5871.9484,1101.5177 0,-141.98881"
       id="path3765"
       inkscape:connector-curvature="0" />
    <path
       style="fill:none;stroke:#000000;stroke-width:9.93921661;stroke-linecap:butt;stroke-linejoin:miter;stroke-miterlimit:4;stroke-opacity:1;stroke-dasharray:none;marker-end:url(#Arrow1Mend)"
       d="m -5603.2567,75.035146 77.6041,-118.905164"
       id="path3765-9"
       inkscape:connector-curvature="0" />
    <path
       style="fill:url(#radialGradient4269);fill-opacity:1;stroke:none"
       d="m -1326.7049,-2124.7723 c 215.9648,142.8463 678.18746,340.3533 678.18746,558.547 0,218.2124 -462.26146,415.7238 -678.25926,558.5824 l 1599.07581,0 c -215.997253,-142.8586 -749.68795,-340.3688 -749.68795,-558.5824 0,-218.1949 533.651657,-415.7007 749.61617,-558.547 z"
       id="rect4243"
       inkscape:connector-curvature="0"
       sodipodi:nodetypes="csccscc" />
    <path
       style="fill:none;stroke:#000000;stroke-width:6.88477564;stroke-linecap:butt;stroke-linejoin:miter;stroke-miterlimit:4;stroke-opacity:1;stroke-dasharray:none;marker-end:url(#Arrow1Mend-8)"
       d="m -868.22104,-1183.7166 58.4062,-56.405"
       id="path4279"
       inkscape:connector-curvature="0" />
    <path
       inkscape:connector-curvature="0"
       id="path4465"
       d="m -250.99974,-1183.7166 -58.4062,-56.405"
       style="fill:none;stroke:#000000;stroke-width:6.88477564;stroke-linecap:butt;stroke-linejoin:miter;stroke-miterlimit:4;stroke-opacity:1;stroke-dasharray:none;marker-end:url(#Arrow1Mend-8)" />
    <path
       style="fill:none;stroke:#000000;stroke-width:6.88477564;stroke-linecap:butt;stroke-linejoin:miter;stroke-miterlimit:4;stroke-opacity:1;stroke-dasharray:none;marker-end:url(#Arrow1Mend-8)"
       d="m -557.51134,-1244.3813 -2.0242,-81.1709"
       id="path4467"
       inkscape:connector-curvature="0" />
    <path
       inkscape:connector-curvature="0"
       id="path4469"
       d="m -869.23124,-1903.5256 58.4062,56.405"
       style="fill:none;stroke:#000000;stroke-width:6.88477564;stroke-linecap:butt;stroke-linejoin:miter;stroke-miterlimit:4;stroke-opacity:1;stroke-dasharray:none;marker-end:url(#Arrow1Mend-8)" />
    <path
       style="fill:none;stroke:#000000;stroke-width:6.88477564;stroke-linecap:butt;stroke-linejoin:miter;stroke-miterlimit:4;stroke-opacity:1;stroke-dasharray:none;marker-end:url(#Arrow1Mend-8)"
       d="m -252.00989,-1903.5256 -58.40615,56.405"
       id="path4471"
       inkscape:connector-curvature="0" />
    <path
       inkscape:connector-curvature="0"
       id="path4473"
       d="m -557.51144,-1922.663 -2.0242,81.1709"
       style="fill:none;stroke:#000000;stroke-width:6.88477564;stroke-linecap:butt;stroke-linejoin:miter;stroke-miterlimit:4;stroke-opacity:1;stroke-dasharray:none;marker-end:url(#Arrow1Mend-8)" />
    <path
       inkscape:connector-curvature="0"
       id="path4475"
       d="m -1092.4749,-1048.3562 58.4062,-56.405"
       style="fill:none;stroke:#000000;stroke-width:6.88477564;stroke-linecap:butt;stroke-linejoin:miter;stroke-miterlimit:4;stroke-opacity:1;stroke-dasharray:none;marker-end:url(#Arrow1Mend-8)" />
    <path
       style="fill:none;stroke:#000000;stroke-width:6.88477564;stroke-linecap:butt;stroke-linejoin:miter;stroke-miterlimit:4;stroke-opacity:1;stroke-dasharray:none;marker-end:url(#Arrow1Mend-8)"
       d="m 46.995257,-1048.3562 -58.4062,-56.405"
       id="path4477"
       inkscape:connector-curvature="0" />
    <path
       inkscape:connector-curvature="0"
       id="path4479"
       d="m -554.48094,-1067.6046 -2.0242,-81.1709"
       style="fill:none;stroke:#000000;stroke-width:6.88477564;stroke-linecap:butt;stroke-linejoin:miter;stroke-miterlimit:4;stroke-opacity:1;stroke-dasharray:none;marker-end:url(#Arrow1Mend-8)" />
    <path
       style="fill:none;stroke:#000000;stroke-width:6.88477564;stroke-linecap:butt;stroke-linejoin:miter;stroke-miterlimit:4;stroke-opacity:1;stroke-dasharray:none;marker-end:url(#Arrow1Mend-8)"
       d="m -282.51193,-1039.0512 -40.78721,-70.2084"
       id="path4481"
       inkscape:connector-curvature="0" />
    <path
       inkscape:connector-curvature="0"
       id="path4483"
       d="m -798.79784,-1039.0512 40.7871,-70.2084"
       style="fill:none;stroke:#000000;stroke-width:6.88477564;stroke-linecap:butt;stroke-linejoin:miter;stroke-miterlimit:4;stroke-opacity:1;stroke-dasharray:none;marker-end:url(#Arrow1Mend-8)" />
    <path
       inkscape:connector-curvature="0"
       id="path4489"
       d="m -875.38324,-1565.1262 81.1709,-2.0242"
       style="fill:none;stroke:#000000;stroke-width:6.88477564;stroke-linecap:butt;stroke-linejoin:miter;stroke-miterlimit:4;stroke-opacity:1;stroke-dasharray:none;marker-end:url(#Arrow1Mend-8)" />
    <path
       inkscape:connector-curvature="0"
       id="path4497"
       d="m -1022.1244,-1445.6903 70.20836,-40.7872"
       style="fill:none;stroke:#000000;stroke-width:6.88477564;stroke-linecap:butt;stroke-linejoin:miter;stroke-miterlimit:4;stroke-opacity:1;stroke-dasharray:none;marker-end:url(#Arrow1Mend-8)" />
    <path
       style="fill:none;stroke:#000000;stroke-width:6.88477564;stroke-linecap:butt;stroke-linejoin:miter;stroke-miterlimit:4;stroke-opacity:1;stroke-dasharray:none;marker-end:url(#Arrow1Mend-8)"
       d="m -1024.1447,-1701.1335 70.20836,40.7871"
       id="path4499"
       inkscape:connector-curvature="0" />
    <g
       id="g4525"
       transform="matrix(-1,0,0,1,-1059.7594,-1731.0819)">
      <path
         inkscape:connector-curvature="0"
         id="path4519"
         d="m -820.97261,172.01668 81.1709,-2.0242"
         style="fill:none;stroke:#000000;stroke-width:6.88477564;stroke-linecap:butt;stroke-linejoin:miter;stroke-miterlimit:4;stroke-opacity:1;stroke-dasharray:none;marker-end:url(#Arrow1Mend-8)" />
      <path
         inkscape:connector-curvature="0"
         id="path4521"
         d="m -967.71381,291.45259 70.2084,-40.78721"
         style="fill:none;stroke:#000000;stroke-width:6.88477564;stroke-linecap:butt;stroke-linejoin:miter;stroke-miterlimit:4;stroke-opacity:1;stroke-dasharray:none;marker-end:url(#Arrow1Mend-8)" />
      <path
         style="fill:none;stroke:#000000;stroke-width:6.88477564;stroke-linecap:butt;stroke-linejoin:miter;stroke-miterlimit:4;stroke-opacity:1;stroke-dasharray:none;marker-end:url(#Arrow1Mend-8)"
         d="m -969.73411,58.009397 70.2084,40.7871"
         id="path4523"
         inkscape:connector-curvature="0" />
    </g>
    <g
       id="g6224"
       transform="translate(697.14286,-1737.1429)">
      <path
         sodipodi:type="arc"
         style="fill:url(#radialGradient6238);fill-opacity:1;stroke:#000000;stroke-width:0.2;stroke-miterlimit:4;stroke-opacity:1;stroke-dasharray:none"
         id="path4273"
         sodipodi:cx="82.85714"
         sodipodi:cy="229.50504"
         sodipodi:rx="397.14285"
         sodipodi:ry="397.14285"
         d="m 479.99999,229.50504 c 0,219.33594 -177.80691,397.14285 -397.14285,397.14285 -219.33594,0 -397.14285,-177.80691 -397.14285,-397.14285 0,-219.335946 177.80691,-397.14286 397.14285,-397.14286 219.33594,0 397.14285,177.806914 397.14285,397.14286 z"
         transform="matrix(0.25558312,0,0,0.25558312,-1309.7484,50.84743)" />
      <path
         inkscape:connector-curvature="0"
         id="path4542"
         d="m -1252.4545,163.75711 c -13.9,-8.95811 -25.2304,-16.31538 -25.1785,-16.3495 0.052,-0.0341 4.2728,0.21577 9.38,0.55532 5.1071,0.33954 9.315,0.59034 9.3509,0.55733 0.036,-0.033 -7.46,-8.6284 -16.6574,-19.10088 l -16.7226,-19.04086 1.6574,-1.4751 c 0.9116,-0.81131 1.9973,-1.77033 2.4127,-2.13117 0.7528,-0.65378 0.8134,-0.59015 17.4438,18.31591 9.1787,10.43458 16.7417,18.91871 16.8068,18.85362 0.065,-0.0651 0.3886,-4.21539 0.7188,-9.22288 0.3302,-5.00749 0.6382,-9.14588 0.6845,-9.19643 0.066,-0.0722 25.3822,53.05471 25.8527,54.25302 0.066,0.16675 -0.015,0.2955 -0.1786,0.28613 -0.1637,-0.009 -11.6704,-7.3464 -25.5705,-16.30451 z"
         style="fill:#0048d8;fill-opacity:0.98230088;stroke:none" />
    </g>
    <path
       style="fill:#808080;fill-opacity:0.98230088;stroke:none"
       d="m -5619.5477,28.845296 0,-47.38993 -9.3413,9.3063178 c -5.1379,5.118478 -9.3278,8.68367295 -9.3111,7.92264 0.018,-0.761012 5.1834,-19.3624018 11.4819,-41.3363708 l 11.4516,-39.952685 11.5273,40.419762 c 6.3399,22.230864 11.7391,41.0503028 11.9981,41.82095875 0.259,0.770646 -3.9997,-3.00508095 -9.4642,-8.39053395 l -9.9352,-9.7917628 0,47.390764 0,47.39075 -4.2034,0 -4.2037,0 0,-47.38991 z"
       id="path4548"
       inkscape:connector-curvature="0" />
    <path
       style="fill:#0070e4;fill-opacity:0.98230088;stroke:none"
       d="m -5563.9288,-66.743643 c -21.1194,-2.957345 -38.3915,-5.643424 -38.3824,-5.969116 0.013,-0.325791 4.92,-2.465841 10.914,-4.755864 5.9939,-2.290011 11.0811,-4.442991 11.3055,-4.784344 0.2241,-0.341378 -6.534,-3.655712 -15.0178,-7.365171 -8.4839,-3.709471 -15.6957,-7.027544 -16.0262,-7.373493 -0.3301,-0.345923 0.095,-2.217869 0.9437,-4.159879 1.8749,-4.28777 0.8533,-4.49212 20.0655,4.014175 7.9635,3.525997 14.4867,6.13495 14.4961,5.797689 0.013,-0.337299 -1.9605,-5.663719 -4.3774,-11.836554 -2.4172,-6.17284 -4.2572,-11.35333 -4.0892,-11.51221 0.2603,-0.24636 61.6966,50.389294 64.1405,52.864391 1.3057,1.32263 -2.1719,0.933549 -43.9723,-4.919624 z"
       id="path4550"
       inkscape:connector-curvature="0" />
    <path
       style="fill:#0050dc;fill-opacity:0.98230088;stroke:none"
       d="m -5640.8932,598.19233 c -23.0064,-11.53676 -41.8703,-20.93556 -41.9197,-20.88618 -0.05,0.0494 1.8578,5.93236 4.2382,13.07337 2.3804,7.14099 4.2976,13.01393 4.2607,13.05093 -0.037,0.0371 -14.903,-13.54555 -33.0354,-30.18344 -18.1322,-16.63789 -32.9532,-30.26306 -32.9353,-30.27816 0.018,-0.0149 19.7248,3.67824 43.793,8.20739 24.0681,4.52915 43.8534,8.23615 43.967,8.23776 0.1133,9.1e-4 0.2063,0.0591 0.2063,0.12765 0,0.0685 -5.9023,2.09348 -13.1164,4.49989 l -13.1162,4.37527 41.9281,21.02238 41.9281,21.02239 -2.1611,4.32563 c -1.1886,2.37908 -2.1715,4.33811 -2.1844,4.35337 -0.013,0.0154 -18.8465,-9.41141 -41.8529,-20.94818 l 0,0 z"
       id="path4556"
       inkscape:connector-curvature="0" />
    <path
       style="fill:none;stroke:#000000;stroke-width:6.88477564;stroke-linecap:butt;stroke-linejoin:miter;stroke-miterlimit:4;stroke-opacity:1;stroke-dasharray:none;marker-end:url(#Arrow1Mend-8)"
       d="m -554.48094,-1067.6046 -2.0242,-81.1709"
       id="path4571"
       inkscape:connector-curvature="0" />
    <g
       id="g5811"
       transform="matrix(0.85235478,0,0,0.85235478,-639.74788,2.9686525)"
       style="opacity:0.36637932">
      <path
         inkscape:tile-y0="-4.2283763"
         inkscape:tile-x0="-4704.048"
         inkscape:tile-h="59.643957"
         inkscape:tile-w="59.5429"
         inkscape:tile-cy="27.23002"
         inkscape:tile-cx="-4672.6444"
         inkscape:connector-curvature="0"
         id="path4573"
         d="m -4780.8196,-2.2080712 59.5429,59.6439572"
         style="fill:none;stroke:#000000;stroke-width:7.15051603;stroke-linecap:butt;stroke-linejoin:miter;stroke-miterlimit:4;stroke-opacity:1;stroke-dasharray:none;marker-end:url(#Arrow1Mend-8)" />
      <use
         id="use5653"
         xlink:href="#path4573"
         inkscape:tiled-clone-of="#path4573"
         y="0"
         x="0"
         width="744.09448"
         height="1052.3622" />
      <use
         id="use5655"
         transform="matrix(0.96592583,-0.25881905,0.25881905,0.96592583,-169.40297,-1049.3108)"
         xlink:href="#path4573"
         inkscape:tiled-clone-of="#path4573"
         y="0"
         x="0"
         width="744.09448"
         height="1052.3622" />
      <use
         id="use5657"
         transform="matrix(0.8660254,-0.5,0.5,0.8660254,-650.92626,-2012.9254)"
         xlink:href="#path4573"
         inkscape:tiled-clone-of="#path4573"
         y="0"
         x="0"
         width="744.09448"
         height="1052.3622" />
      <use
         id="use5663"
         transform="matrix(0.96592583,0.25881905,-0.25881905,0.96592583,24.366815,1230.2957)"
         xlink:href="#path4573"
         inkscape:tiled-clone-of="#path4573"
         y="0"
         x="0"
         width="744.09448"
         height="1052.3622" />
      <use
         id="use5665"
         transform="translate(178.6287,178.99152)"
         xlink:href="#path4573"
         inkscape:tiled-clone-of="#path4573"
         y="0"
         x="0"
         width="744.09448"
         height="1052.3622" />
      <use
         id="use5667"
         transform="matrix(0.96592583,-0.25881905,0.25881905,0.96592583,9.2257332,-870.31925)"
         xlink:href="#path4573"
         inkscape:tiled-clone-of="#path4573"
         y="0"
         x="0"
         width="744.09448"
         height="1052.3622" />
      <use
         id="use5669"
         transform="matrix(0.8660254,-0.5,0.5,0.8660254,-472.29756,-1833.9339)"
         xlink:href="#path4573"
         inkscape:tiled-clone-of="#path4573"
         y="0"
         x="0"
         width="744.09448"
         height="1052.3622" />
      <use
         id="use5673"
         transform="matrix(0.8660254,0.5,-0.5,0.8660254,-264.41853,2378.7461)"
         xlink:href="#path4573"
         inkscape:tiled-clone-of="#path4573"
         y="0"
         x="0"
         width="744.09448"
         height="1052.3622" />
      <use
         id="use5675"
         transform="matrix(0.96592583,0.25881905,-0.25881905,0.96592583,202.99552,1409.2872)"
         xlink:href="#path4573"
         inkscape:tiled-clone-of="#path4573"
         y="0"
         x="0"
         width="744.09448"
         height="1052.3622" />
      <use
         id="use5677"
         transform="translate(357.2574,357.98303)"
         xlink:href="#path4573"
         inkscape:tiled-clone-of="#path4573"
         y="0"
         x="0"
         width="744.09448"
         height="1052.3622" />
      <use
         id="use5679"
         transform="matrix(0.96592583,-0.25881905,0.25881905,0.96592583,187.85443,-691.32773)"
         xlink:href="#path4573"
         inkscape:tiled-clone-of="#path4573"
         y="0"
         x="0"
         width="744.09448"
         height="1052.3622" />
      <use
         id="use5683"
         transform="matrix(0.70710678,0.70710678,-0.70710678,0.70710678,-834.50254,3367.0904)"
         xlink:href="#path4573"
         inkscape:tiled-clone-of="#path4573"
         y="0"
         x="0"
         width="744.09448"
         height="1052.3622" />
      <use
         id="use5685"
         transform="matrix(0.8660254,0.5,-0.5,0.8660254,-85.789831,2557.7376)"
         xlink:href="#path4573"
         inkscape:tiled-clone-of="#path4573"
         y="0"
         x="0"
         width="744.09448"
         height="1052.3622" />
      <use
         id="use5687"
         transform="matrix(0.96592583,0.25881905,-0.25881905,0.96592583,381.62422,1588.2787)"
         xlink:href="#path4573"
         inkscape:tiled-clone-of="#path4573"
         y="0"
         x="0"
         width="744.09448"
         height="1052.3622" />
      <use
         id="use5689"
         transform="translate(535.8861,536.97455)"
         xlink:href="#path4573"
         inkscape:tiled-clone-of="#path4573"
         y="0"
         x="0"
         width="744.09448"
         height="1052.3622" />
    </g>
    <g
       id="g5830"
       transform="matrix(-0.85235478,0,0,0.85235478,-7696.3822,2.9686525)"
       style="opacity:0.36637932">
      <path
         style="fill:none;stroke:#000000;stroke-width:7.15051603;stroke-linecap:butt;stroke-linejoin:miter;stroke-miterlimit:4;stroke-opacity:1;stroke-dasharray:none;marker-end:url(#Arrow1Mend-8)"
         d="m -4780.8196,-2.2080712 59.5429,59.6439572"
         id="path5832"
         inkscape:connector-curvature="0"
         inkscape:tile-cx="-4672.6444"
         inkscape:tile-cy="27.23002"
         inkscape:tile-w="59.5429"
         inkscape:tile-h="59.643957"
         inkscape:tile-x0="-4704.048"
         inkscape:tile-y0="-4.2283763" />
      <use
         height="1052.3622"
         width="744.09448"
         x="0"
         y="0"
         inkscape:tiled-clone-of="#path4573"
         xlink:href="#path4573"
         id="use5834" />
      <use
         height="1052.3622"
         width="744.09448"
         x="0"
         y="0"
         inkscape:tiled-clone-of="#path4573"
         xlink:href="#path4573"
         transform="matrix(0.96592583,-0.25881905,0.25881905,0.96592583,-169.40297,-1049.3108)"
         id="use5836" />
      <use
         height="1052.3622"
         width="744.09448"
         x="0"
         y="0"
         inkscape:tiled-clone-of="#path4573"
         xlink:href="#path4573"
         transform="matrix(0.8660254,-0.5,0.5,0.8660254,-650.92626,-2012.9254)"
         id="use5838" />
      <use
         height="1052.3622"
         width="744.09448"
         x="0"
         y="0"
         inkscape:tiled-clone-of="#path4573"
         xlink:href="#path4573"
         transform="matrix(0.96592583,0.25881905,-0.25881905,0.96592583,24.366815,1230.2957)"
         id="use5842" />
      <use
         height="1052.3622"
         width="744.09448"
         x="0"
         y="0"
         inkscape:tiled-clone-of="#path4573"
         xlink:href="#path4573"
         transform="translate(178.6287,178.99152)"
         id="use5844" />
      <use
         height="1052.3622"
         width="744.09448"
         x="0"
         y="0"
         inkscape:tiled-clone-of="#path4573"
         xlink:href="#path4573"
         transform="matrix(0.96592583,-0.25881905,0.25881905,0.96592583,9.2257332,-870.31925)"
         id="use5846" />
      <use
         height="1052.3622"
         width="744.09448"
         x="0"
         y="0"
         inkscape:tiled-clone-of="#path4573"
         xlink:href="#path4573"
         transform="matrix(0.8660254,-0.5,0.5,0.8660254,-472.29756,-1833.9339)"
         id="use5848" />
      <use
         height="1052.3622"
         width="744.09448"
         x="0"
         y="0"
         inkscape:tiled-clone-of="#path4573"
         xlink:href="#path4573"
         transform="matrix(0.8660254,0.5,-0.5,0.8660254,-264.41853,2378.7461)"
         id="use5850" />
      <use
         height="1052.3622"
         width="744.09448"
         x="0"
         y="0"
         inkscape:tiled-clone-of="#path4573"
         xlink:href="#path4573"
         transform="matrix(0.96592583,0.25881905,-0.25881905,0.96592583,202.99552,1409.2872)"
         id="use5852" />
      <use
         height="1052.3622"
         width="744.09448"
         x="0"
         y="0"
         inkscape:tiled-clone-of="#path4573"
         xlink:href="#path4573"
         transform="translate(357.2574,357.98303)"
         id="use5854" />
      <use
         height="1052.3622"
         width="744.09448"
         x="0"
         y="0"
         inkscape:tiled-clone-of="#path4573"
         xlink:href="#path4573"
         transform="matrix(0.96592583,-0.25881905,0.25881905,0.96592583,187.85443,-691.32773)"
         id="use5856" />
      <use
         height="1052.3622"
         width="744.09448"
         x="0"
         y="0"
         inkscape:tiled-clone-of="#path4573"
         xlink:href="#path4573"
         transform="matrix(0.70710678,0.70710678,-0.70710678,0.70710678,-834.50254,3367.0904)"
         id="use5858" />
      <use
         height="1052.3622"
         width="744.09448"
         x="0"
         y="0"
         inkscape:tiled-clone-of="#path4573"
         xlink:href="#path4573"
         transform="matrix(0.8660254,0.5,-0.5,0.8660254,-85.789831,2557.7376)"
         id="use5860" />
      <use
         height="1052.3622"
         width="744.09448"
         x="0"
         y="0"
         inkscape:tiled-clone-of="#path4573"
         xlink:href="#path4573"
         transform="matrix(0.96592583,0.25881905,-0.25881905,0.96592583,381.62422,1588.2787)"
         id="use5862" />
      <use
         height="1052.3622"
         width="744.09448"
         x="0"
         y="0"
         inkscape:tiled-clone-of="#path4573"
         xlink:href="#path4573"
         transform="translate(535.8861,536.97455)"
         id="use5864" />
    </g>
    <g
       id="g5866"
       transform="matrix(0.85235478,0,0,-0.85235478,-639.74788,1104.0316)"
       style="opacity:0.36637932">
      <path
         style="fill:none;stroke:#000000;stroke-width:7.15051603;stroke-linecap:butt;stroke-linejoin:miter;stroke-miterlimit:4;stroke-opacity:1;stroke-dasharray:none;marker-end:url(#Arrow1Mend-8)"
         d="m -4780.8196,-2.2080712 59.5429,59.6439572"
         id="path5868"
         inkscape:connector-curvature="0"
         inkscape:tile-cx="-4672.6444"
         inkscape:tile-cy="27.23002"
         inkscape:tile-w="59.5429"
         inkscape:tile-h="59.643957"
         inkscape:tile-x0="-4704.048"
         inkscape:tile-y0="-4.2283763" />
      <use
         height="1052.3622"
         width="744.09448"
         x="0"
         y="0"
         inkscape:tiled-clone-of="#path4573"
         xlink:href="#path4573"
         id="use5870" />
      <use
         height="1052.3622"
         width="744.09448"
         x="0"
         y="0"
         inkscape:tiled-clone-of="#path4573"
         xlink:href="#path4573"
         transform="matrix(0.96592583,-0.25881905,0.25881905,0.96592583,-169.40297,-1049.3108)"
         id="use5872" />
      <use
         height="1052.3622"
         width="744.09448"
         x="0"
         y="0"
         inkscape:tiled-clone-of="#path4573"
         xlink:href="#path4573"
         transform="matrix(0.8660254,-0.5,0.5,0.8660254,-650.92626,-2012.9254)"
         id="use5874" />
      <use
         height="1052.3622"
         width="744.09448"
         x="0"
         y="0"
         inkscape:tiled-clone-of="#path4573"
         xlink:href="#path4573"
         transform="matrix(0.96592583,0.25881905,-0.25881905,0.96592583,24.366815,1230.2957)"
         id="use5878" />
      <use
         height="1052.3622"
         width="744.09448"
         x="0"
         y="0"
         inkscape:tiled-clone-of="#path4573"
         xlink:href="#path4573"
         transform="translate(178.6287,178.99152)"
         id="use5880" />
      <use
         height="1052.3622"
         width="744.09448"
         x="0"
         y="0"
         inkscape:tiled-clone-of="#path4573"
         xlink:href="#path4573"
         transform="matrix(0.96592583,-0.25881905,0.25881905,0.96592583,9.2257332,-870.31925)"
         id="use5882" />
      <use
         height="1052.3622"
         width="744.09448"
         x="0"
         y="0"
         inkscape:tiled-clone-of="#path4573"
         xlink:href="#path4573"
         transform="matrix(0.8660254,-0.5,0.5,0.8660254,-472.29756,-1833.9339)"
         id="use5884" />
      <use
         height="1052.3622"
         width="744.09448"
         x="0"
         y="0"
         inkscape:tiled-clone-of="#path4573"
         xlink:href="#path4573"
         transform="matrix(0.8660254,0.5,-0.5,0.8660254,-264.41853,2378.7461)"
         id="use5886" />
      <use
         height="1052.3622"
         width="744.09448"
         x="0"
         y="0"
         inkscape:tiled-clone-of="#path4573"
         xlink:href="#path4573"
         transform="matrix(0.96592583,0.25881905,-0.25881905,0.96592583,202.99552,1409.2872)"
         id="use5888" />
      <use
         height="1052.3622"
         width="744.09448"
         x="0"
         y="0"
         inkscape:tiled-clone-of="#path4573"
         xlink:href="#path4573"
         transform="translate(357.2574,357.98303)"
         id="use5890" />
      <use
         height="1052.3622"
         width="744.09448"
         x="0"
         y="0"
         inkscape:tiled-clone-of="#path4573"
         xlink:href="#path4573"
         transform="matrix(0.96592583,-0.25881905,0.25881905,0.96592583,187.85443,-691.32773)"
         id="use5892" />
      <use
         height="1052.3622"
         width="744.09448"
         x="0"
         y="0"
         inkscape:tiled-clone-of="#path4573"
         xlink:href="#path4573"
         transform="matrix(0.70710678,0.70710678,-0.70710678,0.70710678,-834.50254,3367.0904)"
         id="use5894" />
      <use
         height="1052.3622"
         width="744.09448"
         x="0"
         y="0"
         inkscape:tiled-clone-of="#path4573"
         xlink:href="#path4573"
         transform="matrix(0.8660254,0.5,-0.5,0.8660254,-85.789831,2557.7376)"
         id="use5896" />
      <use
         height="1052.3622"
         width="744.09448"
         x="0"
         y="0"
         inkscape:tiled-clone-of="#path4573"
         xlink:href="#path4573"
         transform="matrix(0.96592583,0.25881905,-0.25881905,0.96592583,381.62422,1588.2787)"
         id="use5898" />
      <use
         height="1052.3622"
         width="744.09448"
         x="0"
         y="0"
         inkscape:tiled-clone-of="#path4573"
         xlink:href="#path4573"
         transform="translate(535.8861,536.97455)"
         id="use5900" />
    </g>
    <g
       transform="matrix(-0.85235478,0,0,-0.85235478,-7696.3822,1104.0316)"
       id="g5902"
       style="opacity:0.36637932">
      <path
         inkscape:tile-y0="-4.2283763"
         inkscape:tile-x0="-4704.048"
         inkscape:tile-h="59.643957"
         inkscape:tile-w="59.5429"
         inkscape:tile-cy="27.23002"
         inkscape:tile-cx="-4672.6444"
         inkscape:connector-curvature="0"
         id="path5904"
         d="m -4780.8196,-2.2080712 59.5429,59.6439572"
         style="fill:none;stroke:#000000;stroke-width:7.15051603;stroke-linecap:butt;stroke-linejoin:miter;stroke-miterlimit:4;stroke-opacity:1;stroke-dasharray:none;marker-end:url(#Arrow1Mend-8)" />
      <use
         id="use5906"
         xlink:href="#path4573"
         inkscape:tiled-clone-of="#path4573"
         y="0"
         x="0"
         width="744.09448"
         height="1052.3622" />
      <use
         id="use5908"
         transform="matrix(0.96592583,-0.25881905,0.25881905,0.96592583,-169.40297,-1049.3108)"
         xlink:href="#path4573"
         inkscape:tiled-clone-of="#path4573"
         y="0"
         x="0"
         width="744.09448"
         height="1052.3622" />
      <use
         id="use5910"
         transform="matrix(0.8660254,-0.5,0.5,0.8660254,-650.92626,-2012.9254)"
         xlink:href="#path4573"
         inkscape:tiled-clone-of="#path4573"
         y="0"
         x="0"
         width="744.09448"
         height="1052.3622" />
      <use
         id="use5914"
         transform="matrix(0.96592583,0.25881905,-0.25881905,0.96592583,24.366815,1230.2957)"
         xlink:href="#path4573"
         inkscape:tiled-clone-of="#path4573"
         y="0"
         x="0"
         width="744.09448"
         height="1052.3622" />
      <use
         id="use5916"
         transform="translate(178.6287,178.99152)"
         xlink:href="#path4573"
         inkscape:tiled-clone-of="#path4573"
         y="0"
         x="0"
         width="744.09448"
         height="1052.3622" />
      <use
         id="use5918"
         transform="matrix(0.96592583,-0.25881905,0.25881905,0.96592583,9.2257332,-870.31925)"
         xlink:href="#path4573"
         inkscape:tiled-clone-of="#path4573"
         y="0"
         x="0"
         width="744.09448"
         height="1052.3622" />
      <use
         id="use5920"
         transform="matrix(0.8660254,-0.5,0.5,0.8660254,-472.29756,-1833.9339)"
         xlink:href="#path4573"
         inkscape:tiled-clone-of="#path4573"
         y="0"
         x="0"
         width="744.09448"
         height="1052.3622" />
      <use
         id="use5922"
         transform="matrix(0.8660254,0.5,-0.5,0.8660254,-264.41853,2378.7461)"
         xlink:href="#path4573"
         inkscape:tiled-clone-of="#path4573"
         y="0"
         x="0"
         width="744.09448"
         height="1052.3622" />
      <use
         id="use5924"
         transform="matrix(0.96592583,0.25881905,-0.25881905,0.96592583,202.99552,1409.2872)"
         xlink:href="#path4573"
         inkscape:tiled-clone-of="#path4573"
         y="0"
         x="0"
         width="744.09448"
         height="1052.3622" />
      <use
         id="use5926"
         transform="translate(357.2574,357.98303)"
         xlink:href="#path4573"
         inkscape:tiled-clone-of="#path4573"
         y="0"
         x="0"
         width="744.09448"
         height="1052.3622" />
      <use
         id="use5928"
         transform="matrix(0.96592583,-0.25881905,0.25881905,0.96592583,187.85443,-691.32773)"
         xlink:href="#path4573"
         inkscape:tiled-clone-of="#path4573"
         y="0"
         x="0"
         width="744.09448"
         height="1052.3622" />
      <use
         id="use5930"
         transform="matrix(0.70710678,0.70710678,-0.70710678,0.70710678,-834.50254,3367.0904)"
         xlink:href="#path4573"
         inkscape:tiled-clone-of="#path4573"
         y="0"
         x="0"
         width="744.09448"
         height="1052.3622" />
      <use
         id="use5932"
         transform="matrix(0.8660254,0.5,-0.5,0.8660254,-85.789831,2557.7376)"
         xlink:href="#path4573"
         inkscape:tiled-clone-of="#path4573"
         y="0"
         x="0"
         width="744.09448"
         height="1052.3622" />
      <use
         id="use5934"
         transform="matrix(0.96592583,0.25881905,-0.25881905,0.96592583,381.62422,1588.2787)"
         xlink:href="#path4573"
         inkscape:tiled-clone-of="#path4573"
         y="0"
         x="0"
         width="744.09448"
         height="1052.3622" />
      <use
         id="use5936"
         transform="translate(535.8861,536.97455)"
         xlink:href="#path4573"
         inkscape:tiled-clone-of="#path4573"
         y="0"
         x="0"
         width="744.09448"
         height="1052.3622" />
    </g>
    <path
       sodipodi:nodetypes="csccscc"
       inkscape:connector-curvature="0"
       id="path5938"
       d="M -4943.8478,-4.7723173 C -4727.883,138.074 -4265.6603,335.58101 -4265.6603,553.77465 c 0,218.2124 -462.2615,415.72389 -678.2593,558.58245 l 1599.0759,0 c -215.9973,-142.85858 -749.688,-340.3688 -749.688,-558.58245 0,-218.19489 533.6517,-415.70062 749.6162,-558.5469673 z"
       style="fill:url(#radialGradient5940);fill-opacity:1;stroke:none" />
    <g
       id="g6230"
       transform="translate(-2931.4286,405.71429)">
      <path
         transform="matrix(0.25558312,0,0,0.25558312,-1309.7484,50.84743)"
         d="m 479.99999,229.50504 c 0,219.33594 -177.80691,397.14285 -397.14285,397.14285 -219.33594,0 -397.14285,-177.80691 -397.14285,-397.14285 0,-219.335946 177.80691,-397.14286 397.14285,-397.14286 219.33594,0 397.14285,177.806914 397.14285,397.14286 z"
         sodipodi:ry="397.14285"
         sodipodi:rx="397.14285"
         sodipodi:cy="229.50504"
         sodipodi:cx="82.85714"
         id="path6232"
         style="fill:url(#radialGradient6236);fill-opacity:1;stroke:#000000;stroke-width:0.2;stroke-miterlimit:4;stroke-opacity:1;stroke-dasharray:none"
         sodipodi:type="arc" />
      <path
         style="fill:#0048d8;fill-opacity:0.98230088;stroke:none"
         d="m -1252.4545,163.75711 c -13.9,-8.95811 -25.2304,-16.31538 -25.1785,-16.3495 0.052,-0.0341 4.2728,0.21577 9.38,0.55532 5.1071,0.33954 9.315,0.59034 9.3509,0.55733 0.036,-0.033 -7.46,-8.6284 -16.6574,-19.10088 l -16.7226,-19.04086 1.6574,-1.4751 c 0.9116,-0.81131 1.9973,-1.77033 2.4127,-2.13117 0.7528,-0.65378 0.8134,-0.59015 17.4438,18.31591 9.1787,10.43458 16.7417,18.91871 16.8068,18.85362 0.065,-0.0651 0.3886,-4.21539 0.7188,-9.22288 0.3302,-5.00749 0.6382,-9.14588 0.6845,-9.19643 0.066,-0.0722 25.3822,53.05471 25.8527,54.25302 0.066,0.16675 -0.015,0.2955 -0.1786,0.28613 -0.1637,-0.009 -11.6704,-7.3464 -25.5705,-16.30451 z"
         id="path6234"
         inkscape:connector-curvature="0" />
    </g>
  </g>
</svg>
