<?xml version="1.0" encoding="UTF-8" standalone="no"?>
<!-- Created with Inkscape (http://www.inkscape.org/) -->

<svg
   xmlns:dc="http://purl.org/dc/elements/1.1/"
   xmlns:cc="http://creativecommons.org/ns#"
   xmlns:rdf="http://www.w3.org/1999/02/22-rdf-syntax-ns#"
   xmlns:svg="http://www.w3.org/2000/svg"
   xmlns="http://www.w3.org/2000/svg"
   xmlns:xlink="http://www.w3.org/1999/xlink"
   xmlns:sodipodi="http://sodipodi.sourceforge.net/DTD/sodipodi-0.dtd"
   xmlns:inkscape="http://www.inkscape.org/namespaces/inkscape"
   width="886.50439"
   height="833.12946"
   id="svg2"
   version="1.1"
   inkscape:version="0.48.2 r9819"
   sodipodi:docname="otm.svg"
   inkscape:export-filename="/Users/matthiasbussonnier/dissertation/figs/ot1.png"
   inkscape:export-xdpi="300"
   inkscape:export-ydpi="300">
  <defs
     id="defs4">
    <marker
       inkscape:stockid="Arrow1Mstart"
       orient="auto"
       refY="0"
       refX="0"
       id="Arrow1Mstart"
       style="overflow:visible">
      <path
         id="path4031"
         d="M 0,0 5,-5 -12.5,0 5,5 0,0 z"
         style="fill-rule:evenodd;stroke:#000000;stroke-width:1pt;marker-start:none"
         transform="matrix(0.4,0,0,0.4,4,0)"
         inkscape:connector-curvature="0" />
    </marker>
    <linearGradient
       id="linearGradient4010">
      <stop
         style="stop-color:#35dc29;stop-opacity:1;"
         offset="0"
         id="stop4012" />
      <stop
         id="stop4018"
         offset="0.27215192"
         style="stop-color:#35dc29;stop-opacity:0.97546011;" />
      <stop
         style="stop-color:#35dc29;stop-opacity:0;"
         offset="1"
         id="stop4014" />
    </linearGradient>
    <linearGradient
       id="linearGradient4263">
      <stop
         style="stop-color:#ff000e;stop-opacity:1;"
         offset="0"
         id="stop4265" />
      <stop
         id="stop4271"
         offset="0.49128455"
         style="stop-color:#ff0008;stop-opacity:0.42372882;" />
      <stop
         style="stop-color:#d40003;stop-opacity:0;"
         offset="1"
         id="stop4267" />
    </linearGradient>
    <marker
       inkscape:stockid="Arrow1Mend"
       orient="auto"
       refY="0"
       refX="0"
       id="Arrow1Mend"
       style="overflow:visible">
      <path
         id="path3779"
         d="M 0,0 5,-5 -12.5,0 5,5 0,0 z"
         style="fill-rule:evenodd;stroke:#000000;stroke-width:1pt;marker-start:none"
         transform="matrix(-0.4,0,0,-0.4,-4,0)"
         inkscape:connector-curvature="0" />
    </marker>
    <linearGradient
       id="linearGradient3755">
      <stop
         style="stop-color:#dadada;stop-opacity:1;"
         offset="0"
         id="stop3757" />
      <stop
         style="stop-color:#898989;stop-opacity:1;"
         offset="1"
         id="stop3759" />
    </linearGradient>
    <marker
       inkscape:stockid="Arrow1Mend"
       orient="auto"
       refY="0"
       refX="0"
       id="Arrow1Mend-8"
       style="overflow:visible">
      <path
         inkscape:connector-curvature="0"
         id="path3779-4"
         d="M 0,0 5,-5 -12.5,0 5,5 0,0 z"
         style="fill-rule:evenodd;stroke:#000000;stroke-width:1pt;marker-start:none"
         transform="matrix(-0.4,0,0,-0.4,-4,0)" />
    </marker>
    <radialGradient
       inkscape:collect="always"
       xlink:href="#linearGradient4263"
       id="radialGradient4269"
       cx="-1269.5554"
       cy="160.57281"
       fx="-1269.5554"
       fy="160.57281"
       r="799.5379"
       gradientTransform="matrix(1.1994321,-0.00582056,0.00679248,1.3997038,954.41605,-1806.9229)"
       gradientUnits="userSpaceOnUse" />
    <radialGradient
       inkscape:collect="always"
       xlink:href="#linearGradient4263"
       id="radialGradient5940"
       gradientUnits="userSpaceOnUse"
       gradientTransform="matrix(0.47078463,-0.00424661,0.00266609,1.0212079,-4922.8228,312.84125)"
       cx="-1269.5554"
       cy="160.57281"
       fx="-1269.5554"
       fy="160.57281"
       r="799.5379" />
    <radialGradient
       inkscape:collect="always"
       xlink:href="#linearGradient3755"
       id="radialGradient6238"
       gradientUnits="userSpaceOnUse"
       cx="13.635199"
       cy="178.49939"
       fx="13.635199"
       fy="178.49939"
       r="397.24286" />
    <radialGradient
       inkscape:collect="always"
       xlink:href="#linearGradient3755"
       id="radialGradient3190"
       gradientUnits="userSpaceOnUse"
       cx="13.635199"
       cy="178.49939"
       fx="13.635199"
       fy="178.49939"
       r="397.24286" />
    <radialGradient
       inkscape:collect="always"
       xlink:href="#linearGradient4263"
       id="radialGradient3224"
       gradientUnits="userSpaceOnUse"
       gradientTransform="matrix(0.47078463,-0.00424661,0.00266609,1.0212079,-4679.9657,314.92578)"
       cx="-1269.5554"
       cy="160.57281"
       fx="-1269.5554"
       fy="160.57281"
       r="799.5379" />
    <radialGradient
       inkscape:collect="always"
       xlink:href="#linearGradient3755"
       id="radialGradient3226"
       gradientUnits="userSpaceOnUse"
       cx="13.635199"
       cy="178.49939"
       fx="13.635199"
       fy="178.49939"
       r="397.24286" />
    <radialGradient
       inkscape:collect="always"
       xlink:href="#linearGradient4010"
       id="radialGradient4016"
       cx="385.71429"
       cy="618.35895"
       fx="385.71429"
       fy="618.35895"
       r="225.71428"
       gradientUnits="userSpaceOnUse" />
  </defs>
  <sodipodi:namedview
     id="base"
     pagecolor="#ffffff"
     bordercolor="#666666"
     borderopacity="1.0"
     inkscape:pageopacity="0.0"
     inkscape:pageshadow="2"
     inkscape:zoom="0.49497475"
     inkscape:cx="370.24442"
     inkscape:cy="466.1349"
     inkscape:document-units="px"
     inkscape:current-layer="layer1"
     showgrid="false"
     showguides="true"
     inkscape:guide-bbox="true"
     fit-margin-top="8"
     fit-margin-left="8"
     fit-margin-right="8"
     fit-margin-bottom="8"
     inkscape:window-width="1280"
     inkscape:window-height="756"
     inkscape:window-x="20"
     inkscape:window-y="0"
     inkscape:window-maximized="0" />
  <metadata
     id="metadata7">
    <rdf:RDF>
      <cc:Work
         rdf:about="">
        <dc:format>image/svg+xml</dc:format>
        <dc:type
           rdf:resource="http://purl.org/dc/dcmitype/StillImage" />
        <dc:title />
      </cc:Work>
    </rdf:RDF>
  </metadata>
  <g
     inkscape:label="Layer 1"
     inkscape:groupmode="layer"
     id="layer1"
     transform="translate(5826.2053,-72.941971)">
    <path
       sodipodi:nodetypes="csccscc"
       inkscape:connector-curvature="0"
       id="path5938"
       d="m -5818.1771,80.941971 c 84.7675,104.219049 266.1928,248.317909 266.1928,407.509499 0,159.20528 -181.4405,303.30741 -266.221,407.53542 l 627.6473,0 c -84.7803,-104.22803 -294.2572,-248.32923 -294.2572,-407.53542 0,-159.1925 209.4616,-303.29043 294.229,-407.509499 z"
       style="opacity:0.56074769;fill:url(#radialGradient5940);fill-opacity:1;stroke:none" />
    <path
       sodipodi:type="arc"
       style="fill:url(#radialGradient4016);fill-opacity:1;stroke:none"
       id="path3228"
       sodipodi:cx="377.14285"
       sodipodi:cy="618.35895"
       sodipodi:rx="225.71428"
       sodipodi:ry="225.71428"
       d="m 602.85713,618.35895 c 0,124.65855 -101.05572,225.71428 -225.71428,225.71428 -124.65855,0 -225.71428,-101.05573 -225.71428,-225.71428 0,-124.65856 101.05573,-225.71428 225.71428,-225.71428 124.65856,0 225.71428,101.05572 225.71428,225.71428 z"
       transform="translate(-5904.7964,-88.68931)" />
    <g
       id="g6230"
       transform="matrix(0.63429655,0,0,0.63429655,-4699.8065,462.61781)">
      <path
         transform="matrix(0.25558312,0,0,0.25558312,-1309.7484,50.84743)"
         d="m 479.99999,229.50504 c 0,219.33594 -177.80691,397.14285 -397.14285,397.14285 -219.33594,0 -397.14285,-177.80691 -397.14285,-397.14285 0,-219.335946 177.80691,-397.14286 397.14285,-397.14286 219.33594,0 397.14285,177.806914 397.14285,397.14286 z"
         sodipodi:ry="397.14285"
         sodipodi:rx="397.14285"
         sodipodi:cy="229.50504"
         sodipodi:cx="82.85714"
         id="path6232"
         style="fill:url(#radialGradient3190);fill-opacity:1;stroke:#000000;stroke-width:0.2;stroke-miterlimit:4;stroke-opacity:1;stroke-dasharray:none"
         sodipodi:type="arc" />
    </g>
    <path
       style="opacity:0.56074769;fill:url(#radialGradient3224);fill-opacity:1;stroke:none"
       d="m -5575.32,83.026511 c 84.7675,104.219039 266.1928,248.317909 266.1928,407.509499 0,159.20527 -181.4405,303.30741 -266.221,407.53539 l 627.6473,0 c -84.7803,-104.228 -294.2572,-248.3292 -294.2572,-407.53539 0,-159.19251 209.4616,-303.29044 294.229,-407.509499 z"
       id="path3192"
       inkscape:connector-curvature="0"
       sodipodi:nodetypes="csccscc" />
    <g
       transform="matrix(0.94362818,0,0,0.97174924,-4058.3535,320.23647)"
       id="g3194">
      <path
         sodipodi:type="arc"
         style="fill:url(#radialGradient3226);fill-opacity:1;stroke:#000000;stroke-width:0.2;stroke-miterlimit:4;stroke-opacity:1;stroke-dasharray:none"
         id="path3196"
         sodipodi:cx="82.85714"
         sodipodi:cy="229.50504"
         sodipodi:rx="397.14285"
         sodipodi:ry="397.14285"
         d="m 479.99999,229.50504 c 0,219.33594 -177.80691,397.14285 -397.14285,397.14285 -219.33594,0 -397.14285,-177.80691 -397.14285,-397.14285 0,-219.335946 177.80691,-397.14286 397.14285,-397.14286 219.33594,0 397.14285,177.806914 397.14285,397.14286 z"
         transform="matrix(0.25558312,0,0,0.25558312,-1309.7484,50.84743)" />
    </g>
    <path
       style="fill:#800000;fill-opacity:1;stroke:none"
       d="m -5280.4575,411.46039 c -0.1614,-2.15288 -0.5416,-15.61948 -0.8449,-29.92576 -0.3032,-14.30629 -0.6705,-26.57964 -0.816,-27.27412 -0.2418,-1.15357 -1.006,-0.49883 -8.843,7.57614 -5.9124,6.09202 -8.4891,8.44643 -8.2913,7.57614 2.1411,-9.41999 19.7961,-76.66131 20.0565,-76.38765 0.424,0.44553 24.2135,76.01827 23.9977,76.2341 -0.082,0.082 -4.1087,-3.58714 -8.9481,-8.15369 -6.3786,-6.01893 -8.8511,-8.0676 -8.9883,-7.44767 -0.1999,0.90301 0.725,40.23819 1.2641,53.7619 l 0.3171,7.95496 -4.3052,0 -4.3052,0 -0.2934,-3.91435 z"
       id="path5408"
       inkscape:connector-curvature="0" />
    <path
       style="fill:#0000ff;fill-opacity:1;stroke:none"
       d="m -5278.0319,419.87016 c -1.1001,-2.18456 -1.6133,-3.72761 -1.3017,-3.91434 0.2828,-0.16953 33.1287,-17.35456 72.9908,-38.18895 39.8622,-20.8344 72.3217,-38.03019 72.1324,-38.21286 -0.1893,-0.18268 -5.2309,-1.85415 -11.2034,-3.71437 -5.9725,-1.86023 -11.1263,-3.52904 -11.4528,-3.70847 -0.3266,-0.17943 17.1743,-3.99532 38.8908,-8.47974 21.7165,-4.48442 39.5449,-8.09858 39.6185,-8.03147 0.074,0.0671 -13.052,12.66481 -29.1681,27.99488 -16.1162,15.33007 -29.3021,27.73486 -29.3021,27.56619 0,-0.16867 1.6078,-5.42498 3.5729,-11.68069 1.9651,-6.25572 3.4606,-11.48633 3.3234,-11.62359 -0.1373,-0.13726 -32.8635,16.81648 -72.725,37.67498 -39.8615,20.8585 -72.7194,37.92454 -73.0175,37.92454 -0.2982,0 -1.3594,-1.62275 -2.3582,-3.60611 z"
       id="path5410"
       inkscape:connector-curvature="0" />
    <path
       style="fill:#008000;fill-opacity:1;stroke:none"
       d="m -5138.8686,438.14815 8.818,-8.51192 -2.7571,-0.27658 c -1.5164,-0.15212 -30.3722,-0.63031 -64.1239,-1.06265 -33.7517,-0.43234 -64.8329,-0.92231 -69.0692,-1.08881 l -7.7024,-0.30274 0,-4.30401 0,-4.30402 15.026,0.32608 c 27.5279,0.59737 121.0369,1.89333 124.8536,1.73037 l 3.7615,-0.1606 -8.8123,-9.0439 c -4.8467,-4.97414 -8.4714,-8.92629 -8.0547,-8.78255 0.4167,0.14375 17.9708,5.46357 39.009,11.82182 25.3308,7.65557 37.9556,11.68958 37.3757,11.9427 -1.2964,0.56583 -75.8392,20.58266 -76.5417,20.55358 -0.3303,-0.0137 3.3675,-3.85522 8.2175,-8.53677 z"
       id="path5412"
       inkscape:connector-curvature="0" />
    <g
       id="g5420"
       transform="matrix(-1,0,0,-1,-11038.26,1032.5722)">
      <path
         style="fill:#800000;fill-opacity:1;stroke:none"
         d="m -5526.9347,492.41473 c -0.1614,-2.15288 -0.5416,-15.61948 -0.8449,-29.92576 -0.3032,-14.30629 -0.6705,-26.57964 -0.816,-27.27412 -0.2418,-1.15357 -1.006,-0.49883 -8.843,7.57614 -5.9124,6.09202 -8.4891,8.44643 -8.2913,7.57614 2.141,-9.41999 19.796,-76.66131 20.0565,-76.38765 0.424,0.44553 24.2135,76.01827 23.9976,76.2341 -0.082,0.082 -4.1086,-3.58714 -8.9481,-8.15369 -6.3785,-6.01893 -8.851,-8.0676 -8.9882,-7.44767 -0.1999,0.90301 0.725,40.23819 1.2641,53.7619 l 0.3171,7.95496 -4.3052,0 -4.3052,0 -0.2934,-3.91435 z"
         id="path5414"
         inkscape:connector-curvature="0" />
      <path
         style="fill:#0000ff;fill-opacity:1;stroke:none"
         d="m -5512.3873,494.74327 c -1.1001,-2.18456 -1.6133,-3.72761 -1.3018,-3.91434 0.2829,-0.16953 33.1287,-17.35456 72.9909,-38.18895 39.8621,-20.8344 72.3217,-38.03019 72.1324,-38.21286 -0.1894,-0.18268 -5.2309,-1.85415 -11.2034,-3.71437 -5.9726,-1.86023 -11.1263,-3.52904 -11.4529,-3.70847 -0.3265,-0.17943 17.1744,-3.99532 38.8909,-8.47974 21.7165,-4.48442 39.5448,-8.09858 39.6185,-8.03147 0.074,0.0671 -13.052,12.66481 -29.1681,27.99488 -16.1162,15.33007 -29.3021,27.73486 -29.3021,27.56619 0,-0.16867 1.6078,-5.42498 3.5729,-11.68069 1.9651,-6.25572 3.4606,-11.48633 3.3233,-11.62359 -0.1372,-0.13726 -32.8635,16.81648 -72.7249,37.67498 -39.8615,20.8585 -72.7194,37.92454 -73.0176,37.92454 -0.2981,0 -1.3593,-1.62275 -2.3581,-3.60611 z"
         id="path5416"
         inkscape:connector-curvature="0" />
      <path
         style="fill:#008000;fill-opacity:1;stroke:none"
         d="m -5381.3052,519.08218 8.818,-8.51192 -2.7571,-0.27658 c -1.5164,-0.15212 -30.3722,-0.63031 -64.1239,-1.06265 -33.7517,-0.43234 -64.8329,-0.92231 -69.0692,-1.08881 l -7.7024,-0.30274 0,-4.30401 0,-4.30402 15.026,0.32608 c 27.5279,0.59737 121.0368,1.89333 124.8535,1.73037 l 3.7615,-0.1606 -8.8122,-9.0439 c -4.8468,-4.97414 -8.4714,-8.92629 -8.0547,-8.78255 0.4167,0.14375 17.9708,5.46357 39.009,11.82182 25.3308,7.65557 37.9555,11.68958 37.3756,11.9427 -1.2963,0.56583 -75.8391,20.58266 -76.5416,20.55358 -0.3303,-0.0137 3.3675,-3.85522 8.2175,-8.53677 z"
         id="path5418"
         inkscape:connector-curvature="0" />
    </g>
  </g>
</svg>
