<?xml version="1.0" encoding="utf-8" standalone="no"?>
<svg xmlns:dc="http://purl.org/dc/elements/1.1/"
xmlns:cc="http://web.resource.org/cc/"
xmlns:rdf="http://www.w3.org/1999/02/22-rdf-syntax-ns#"
xmlns:svg="http://www.w3.org/2000/svg"
xmlns="http://www.w3.org/2000/svg" version="1.0" height="90"
width="330">
  <metadata>
    <rdf:RDF>
      <cc:Work rdf:about="">
        <dc:format>image/svg+xml</dc:format>
        <dc:type rdf:resource="http://purl.org/dc/dcmitype/StillImage" />
        <cc:license rdf:resource="http://web.resource.org/cc/PublicDomain" />
      </cc:Work>
      <cc:License rdf:about="http://web.resource.org/cc/PublicDomain">

        <cc:permits rdf:resource="http://web.resource.org/cc/Reproduction" />
        <cc:permits rdf:resource="http://web.resource.org/cc/Distribution" />
        <cc:permits rdf:resource="http://web.resource.org/cc/DerivativeWorks" />
      </cc:License>
    </rdf:RDF>
  </metadata>
  <defs />
  <g>
    <path d="M 278.49,61.561 C 274.68,61.653 269.43,62.564 267.35,58.454 C 265.52,54.942 264.08,50.757 260.8,48.339 C 255.43,46.399 252.59,52.712 252.19,57.039 C 250.7,59.893 251.46,68.559 255.97,64.735 C 258.86,60.688 256.7,55.426 254.65,51.515 C 253.13,47.942 247.99,46.633 245.69,50.152 C 243.03,53.866 242.35,58.743 242.69,63.195 C 242.9,68.157 248.39,65.194 248.08,61.713 C 248.63,57.659 246.67,53.834 244.99,50.292 C 241.81,45.671 235.19,48.84 234.78,53.83 C 234.01,57.407 231.61,63.913 235.65,65.923 C 240.63,64.601 239.2,57.969 237.83,54.38 C 237.02,49.355 230.9,45.394 227.18,50.303 C 224.92,54.807 223.62,60.418 225.3,65.367 C 228.79,67.944 231.21,60.55 229.79,57.55 C 228.76,53.739 226.94,48.292 222.31,47.996 C 218.07,48.475 216.46,53.245 215.82,56.866 C 214.43,59.715 214.94,68.355 219.57,64.949 C 222.6,60.477 220.29,54.834 217.81,50.685 C 216.03,46.735 210.05,47.574 208.41,51.226 C 207.32,54.845 205.74,58.607 206.22,62.47 C 206.44,67.833 212.74,65.105 211.91,60.894 C 212.07,56.913 210.56,52.829 207.97,49.813 C 204.96,45.947 200.05,48.725 198.92,52.617 C 197.25,56.297 197.07,60.464 197.46,64.432 C 200.92,69.231 204.53,60.425 202.4,57.336 C 201.62,54.326 200.26,49.997 196.5,50.005 C 191.73,51.176 191.33,57.157 188.34,60.306 C 185.73,62.826 181.76,61.233 178.55,61.561"
    style="fill:none;stroke:#000000;stroke-width:3.0752" />
    <path d="M 90.523,46.569 L 90.523,76.937"
    style="fill:none;stroke:#000000;stroke-width:3.0752" />
    <path d="M 90.523,61.561 L 51.506,61.561"
    style="fill:none;stroke:#000000;stroke-width:3.0752" />
    <path d="M 119.93,61.561 L 151.45,61.561"
    style="fill:none;stroke:#000000;stroke-width:3.0752" />
    <path d="M 75.531,43.494 C 88.42,43.557 101.31,43.364 114.2,43.595 C 116.74,43.412 120.07,44.35 119.77,47.499 C 120.19,51.513 119.76,55.554 119.92,59.58 C 119.91,65.284 120.02,70.996 119.79,76.693 C 119.17,79.753 115.49,79.846 112.99,79.755 C 104.38,79.908 95.773,79.753 87.162,79.82 C 83.285,79.82 79.408,79.82 75.531,79.82"
    style="fill:none;stroke:#000000;stroke-width:3.0752" />
    <circle transform="matrix(0.1922,0,0,0.1922,-75.538,-83.55)"
    cx="472" cy="755" r="47"
    style="fill:none;stroke:#000000;stroke-width:16" />
    <circle transform="matrix(0.1922,0,0,0.1922,-75.538,-83.55)"
    cx="2031" cy="755" r="47"
    style="fill:none;stroke:#000000;stroke-width:16" />
    <path d="M 24.214,61.561 C 33.311,61.561 42.409,61.561 51.506,61.561"
    style="fill:none;stroke:#000000;stroke-width:3.0752" />
    <path d="M 151.45,61.561 L 178.55,61.561"
    style="fill:none;stroke:#000000;stroke-width:3.0752" />
    <path d="M 278.49,61.561 L 305.79,61.561"
    style="fill:none;stroke:#000000;stroke-width:3.0752" />
    <text x="214.87621" y="34.4608"
    style="font-size:29.2px;font-style:normal;font-weight:normal;text-anchor:start;fill:#000000;stroke:#000000;stroke-width:0.0048in;font-family:AvantGarde">
    E</text>
    <path d="M 103.79,31.112 L 101.11,31.112 L 101.11,16.163 C 101.11,15.431 101.07,14.746 100.98,14.109 C 100.9,13.462 100.74,12.958 100.51,12.597 C 100.28,12.197 99.933,11.902 99.486,11.712 C 99.039,11.512 98.459,11.413 97.746,11.413 C 97.014,11.413 96.248,11.593 95.449,11.955 C 94.651,12.316 93.885,12.777 93.153,13.338 L 93.153,25.235 L 90.471,25.235 L 90.471,9.3014 L 93.153,9.3014 L 93.153,11.07 C 93.99,10.376 94.855,9.8339 95.749,9.444 C 96.643,9.0541 97.561,8.8592 98.502,8.8592 C 100.22,8.8592 101.54,9.3775 102.44,10.414 C 103.34,11.451 103.79,12.944 103.79,14.893 L 103.79,31.112"
    style="font-size:29.2px;font-style:normal;font-weight:normal;text-anchor:start;fill:#000000;stroke:#000000;stroke-width:0.0048in;font-family:AvantGarde" />
  </g>
</svg>
