<?xml version="1.0" encoding="UTF-8" standalone="no"?>
<svg
   xmlns:dc="http://purl.org/dc/elements/1.1/"
   xmlns:cc="http://creativecommons.org/ns#"
   xmlns:rdf="http://www.w3.org/1999/02/22-rdf-syntax-ns#"
   xmlns:svg="http://www.w3.org/2000/svg"
   xmlns="http://www.w3.org/2000/svg"
   xmlns:sodipodi="http://sodipodi.sourceforge.net/DTD/sodipodi-0.dtd"
   xmlns:inkscape="http://www.inkscape.org/namespaces/inkscape"
   version="1.0"
   height="180.52751"
   width="663.56738"
   id="svg2"
   inkscape:version="0.48.2 r9819"
   sodipodi:docname="MKV.svg"
   inkscape:export-filename="/Users/matthiasbussonnier/dissertation/figs/MKV.png"
   inkscape:export-xdpi="300"
   inkscape:export-ydpi="300">
  <sodipodi:namedview
     pagecolor="#ffffff"
     bordercolor="#666666"
     borderopacity="1"
     objecttolerance="10"
     gridtolerance="10"
     guidetolerance="10"
     inkscape:pageopacity="0"
     inkscape:pageshadow="2"
     inkscape:window-width="1055"
     inkscape:window-height="748"
     id="namedview34"
     showgrid="false"
     fit-margin-top="9"
     fit-margin-left="9"
     fit-margin-right="9"
     fit-margin-bottom="9"
     inkscape:zoom="1.1575758"
     inkscape:cx="342.16547"
     inkscape:cy="92.071205"
     inkscape:window-x="0"
     inkscape:window-y="0"
     inkscape:window-maximized="0"
     inkscape:current-layer="svg2" />
  <metadata
     id="metadata4">
    <rdf:RDF>
      <cc:Work
         rdf:about="">
        <dc:format>image/svg+xml</dc:format>
        <dc:type
           rdf:resource="http://purl.org/dc/dcmitype/StillImage" />
        <cc:license
           rdf:resource="http://web.resource.org/cc/PublicDomain" />
        <dc:title></dc:title>
      </cc:Work>
      <cc:License
         rdf:about="http://web.resource.org/cc/PublicDomain">
        <cc:permits
           rdf:resource="http://web.resource.org/cc/Reproduction" />
        <cc:permits
           rdf:resource="http://web.resource.org/cc/Distribution" />
        <cc:permits
           rdf:resource="http://web.resource.org/cc/DerivativeWorks" />
      </cc:License>
    </rdf:RDF>
  </metadata>
  <defs
     id="defs6" />
  <g
     id="g8"
     transform="translate(4.3906,43.456313)">
    <path
       d="m 278.49,61.561 c -3.81,0.092 -9.06,1.003 -11.14,-3.107 -1.83,-3.512 -3.27,-7.697 -6.55,-10.115 -5.37,-1.94 -8.21,4.373 -8.61,8.7 -1.49,2.854 -0.73,11.52 3.78,7.696 2.89,-4.047 0.73,-9.309 -1.32,-13.22 -1.52,-3.573 -6.66,-4.882 -8.96,-1.363 -2.66,3.714 -3.34,8.591 -3,13.043 0.21,4.962 5.7,1.999 5.39,-1.482 0.55,-4.054 -1.41,-7.879 -3.09,-11.421 -3.18,-4.621 -9.8,-1.452 -10.21,3.538 -0.77,3.577 -3.17,10.083 0.87,12.093 4.98,-1.322 3.55,-7.954 2.18,-11.543 -0.81,-5.025 -6.93,-8.986 -10.65,-4.077 -2.26,4.504 -3.56,10.115 -1.88,15.064 3.49,2.577 5.91,-4.817 4.49,-7.817 -1.03,-3.811 -2.85,-9.258 -7.48,-9.554 -4.24,0.479 -5.85,5.249 -6.49,8.87 -1.39,2.849 -0.88,11.489 3.75,8.083 3.03,-4.472 0.72,-10.115 -1.76,-14.264 -1.78,-3.95 -7.76,-3.111 -9.4,0.541 -1.09,3.619 -2.67,7.381 -2.19,11.244 0.22,5.363 6.52,2.635 5.69,-1.576 0.16,-3.981 -1.35,-8.065 -3.94,-11.081 -3.01,-3.866 -7.92,-1.088 -9.05,2.804 -1.67,3.68 -1.85,7.847 -1.46,11.815 3.46,4.799 7.07,-4.007 4.94,-7.096 -0.78,-3.01 -2.14,-7.339 -5.9,-7.331 -4.77,1.171 -5.17,7.152 -8.16,10.301 -2.61,2.52 -6.58,0.927 -9.79,1.255"
       style="fill:none;stroke:#000000;stroke-width:3.07520008"
       id="path10"
       inkscape:connector-curvature="0" />
    <path
       d="m 90.523,46.569 0,30.368"
       style="fill:none;stroke:#000000;stroke-width:3.07520008"
       id="path12"
       inkscape:connector-curvature="0" />
    <path
       d="m 90.523,61.561 -39.017,0"
       style="fill:none;stroke:#000000;stroke-width:3.07520008"
       id="path14"
       inkscape:connector-curvature="0" />
    <path
       d="m 119.93,61.561 31.52,0"
       style="fill:none;stroke:#000000;stroke-width:3.07520008"
       id="path16"
       inkscape:connector-curvature="0" />
    <path
       d="m 75.531,43.494 c 12.889,0.063 25.779,-0.13 38.669,0.101 2.54,-0.183 5.87,0.755 5.57,3.904 0.42,4.014 -0.01,8.055 0.15,12.081 -0.01,5.704 0.1,11.416 -0.13,17.113 -0.62,3.06 -4.3,3.153 -6.8,3.062 -8.61,0.153 -17.217,-0.002 -25.828,0.065 -3.877,0 -7.754,0 -11.631,0"
       style="fill:none;stroke:#000000;stroke-width:3.07520008"
       id="path18"
       inkscape:connector-curvature="0" />
    <circle
       transform="matrix(0.1922,0,0,0.1922,-75.538,-83.55)"
       cx="472"
       cy="755"
       r="47"
       style="fill:none;stroke:#000000;stroke-width:16"
       id="circle20"
       sodipodi:cx="472"
       sodipodi:cy="755"
       sodipodi:rx="47"
       sodipodi:ry="47"
       d="m 519,755 c 0,25.95738 -21.04262,47 -47,47 -25.95738,0 -47,-21.04262 -47,-47 0,-25.95738 21.04262,-47 47,-47 25.95738,0 47,21.04262 47,47 z" />
    <circle
       transform="matrix(0.1922,0,0,0.1922,-75.538,-83.55)"
       cx="2031"
       cy="755"
       r="47"
       style="fill:none;stroke:#000000;stroke-width:16"
       id="circle22"
       sodipodi:cx="2031"
       sodipodi:cy="755"
       sodipodi:rx="47"
       sodipodi:ry="47"
       d="m 2078,755 c 0,25.95738 -21.0426,47 -47,47 -25.9574,0 -47,-21.04262 -47,-47 0,-25.95738 21.0426,-47 47,-47 25.9574,0 47,21.04262 47,47 z" />
    <path
       d="m 24.214,61.561 c 9.097,0 18.195,0 27.292,0"
       style="fill:none;stroke:#000000;stroke-width:3.07520008"
       id="path24"
       inkscape:connector-curvature="0" />
    <path
       d="m 151.45,61.561 27.1,0"
       style="fill:none;stroke:#000000;stroke-width:3.07520008"
       id="path26"
       inkscape:connector-curvature="0" />
    <path
       d="m 278.49,61.561 27.3,0"
       style="fill:none;stroke:#000000;stroke-width:3.07520008"
       id="path28"
       inkscape:connector-curvature="0" />
    <text
       x="214.87621"
       y="34.4608"
       style="font-size:29.20000076px;font-style:normal;font-weight:normal;text-anchor:start;fill:#000000;stroke:#000000;stroke-width:0.0048in;font-family:AvantGarde"
       id="text30">E</text>
    <path
       d="m 103.79,31.112 -2.68,0 0,-14.949 c 0,-0.732 -0.04,-1.417 -0.13,-2.054 -0.08,-0.647 -0.24,-1.151 -0.47,-1.512 -0.23,-0.4 -0.577,-0.695 -1.024,-0.885 -0.447,-0.2 -1.027,-0.299 -1.74,-0.299 -0.732,0 -1.498,0.18 -2.297,0.542 -0.798,0.361 -1.564,0.822 -2.296,1.383 l 0,11.897 -2.682,0 0,-15.9336 2.682,0 0,1.7686 c 0.837,-0.694 1.702,-1.2361 2.596,-1.626 0.894,-0.3899 1.812,-0.5848 2.753,-0.5848 1.718,0 3.038,0.5183 3.938,1.5548 0.9,1.037 1.35,2.53 1.35,4.479 l 0,16.219"
       style="font-size:29.20000076px;font-style:normal;font-weight:normal;text-anchor:start;fill:#000000;stroke:#000000;stroke-width:0.0048in;font-family:AvantGarde"
       id="path32"
       inkscape:connector-curvature="0" />
  </g>
  <g
     transform="matrix(1.1392404,0,0,1.1392404,432.38905,4.8242886)"
     id="g3019">
    <path
       inkscape:connector-curvature="0"
       d="m 90.093,115.14 0,27.4"
       style="fill:none;stroke:#000000;stroke-width:2.75679994"
       id="path3021" />
    <path
       inkscape:connector-curvature="0"
       d="m 90.093,128.75 -34.805,0"
       style="fill:none;stroke:#000000;stroke-width:2.75679994"
       id="path3023" />
    <path
       inkscape:connector-curvature="0"
       d="m 116.63,128.75 28.08,0"
       style="fill:none;stroke:#000000;stroke-width:2.75679994"
       id="path3025" />
    <path
       inkscape:connector-curvature="0"
       d="m 76.825,112.38 c 11.781,0.1 23.575,-0.2 35.345,0.16 3,-0.36 4.78,2.4 4.48,5.15 -0.14,7.89 0.18,15.81 -0.16,23.7 -0.06,3.89 -4.46,3.38 -7.19,3.56 -10.825,-0.01 -21.65,0 -32.475,0"
       style="fill:none;stroke:#000000;stroke-width:2.75679994"
       id="path3027" />
    <path
       inkscape:connector-curvature="0"
       d="m 144.82,47.254 c -3.81,-0.019 -9.06,0.146 -10.71,-3.924 -1.16,-3.556 -3.38,-7.962 -7.67,-8.042 -4.26,1.116 -5.09,6.268 -5.78,9.99 -1.11,3.162 2.94,7.554 4.69,3.176 1.58,-4.272 -0.37,-9.221 -3.48,-12.275 -3.92,-2.654 -8.33,1.021 -8.37,5.204 -0.74,2.822 -1.92,6.363 0.25,8.847 4.02,2.12 4.69,-5.59 3.28,-8.206 -0.75,-3.69 -4.25,-8.655 -8.47,-6.107 -3.35,1.776 -3.54,6.064 -4.28,9.332 -1.18,3.193 2.95,7.686 4.76,3.36 1.42,-3.996 -0.59,-8.266 -2.67,-11.629 -2.49,-2.994 -7.851,-1.582 -8.698,2.156 -1.06,3.424 -2.91,8.039 -0.106,11.059 4.414,0.685 4.434,-5.36 3.084,-8.246 -0.829,-3.122 -3.147,-6.944 -6.838,-6.587 -4.491,1.267 -5.046,6.576 -6.052,10.366 -1.08,3.571 4.356,7.105 5.21,2.341 1.132,-4.862 -1.315,-10.362 -5.582,-12.883 -4.857,-0.785 -6.576,5.309 -7.341,9.029 -2.006,3.145 2.149,9.303 4.614,4.55 0.92,-3.566 -0.02,-7.615 -2.047,-10.661 -1.677,-3.083 -6.597,-4.168 -8.306,-0.497 -1.803,3.462 -3.881,8.261 -1.832,11.961 2.771,3.208 4.989,-1.763 4.472,-4.319 0.041,-3.531 -2.049,-8.016 -6.029,-8.13 -4.096,1.035 -4.122,6.251 -6.954,8.729 -2.316,2.508 -5.718,1.36 -8.701,1.406"
       style="fill:none;stroke:#000000;stroke-width:2.75679994"
       id="path3029" />
    <circle
       d="m 1606,992 c 0,25.9574 -21.0426,47 -47,47 -25.9574,0 -47,-21.0426 -47,-47 0,-25.95738 21.0426,-47 47,-47 25.9574,0 47,21.04262 47,47 z"
       sodipodi:ry="47"
       sodipodi:rx="47"
       sodipodi:cy="992"
       sodipodi:cx="1559"
       transform="matrix(0.1723,0,0,0.1723,-83.069,-82.833)"
       cx="1559"
       cy="992"
       r="47"
       style="fill:none;stroke:#000000;stroke-width:16"
       id="circle3031" />
    <circle
       d="m 613,992 c 0,25.9574 -21.04262,47 -47,47 -25.95738,0 -47,-21.0426 -47,-47 0,-25.95738 21.04262,-47 47,-47 25.95738,0 47,21.04262 47,47 z"
       sodipodi:ry="47"
       sodipodi:rx="47"
       sodipodi:cy="992"
       sodipodi:cx="566"
       transform="matrix(0.1723,0,0,0.1723,-83.069,-82.833)"
       cx="566"
       cy="992"
       r="47"
       style="fill:none;stroke:#000000;stroke-width:16"
       id="circle3033" />
    <path
       inkscape:connector-curvature="0"
       d="m 144.71,47.254 8.27,0 0,81.496 -8.27,0"
       style="fill:none;stroke:#000000;stroke-width:2.75679994"
       id="path3035" />
    <path
       inkscape:connector-curvature="0"
       d="m 152.98,88.089 24.3,0"
       style="fill:none;stroke:#000000;stroke-width:2.75679994"
       id="path3037" />
    <path
       inkscape:connector-curvature="0"
       d="m 55.288,47.254 -8.27,0 0,81.496 8.27,0"
       style="fill:none;stroke:#000000;stroke-width:2.75679994"
       id="path3039" />
    <path
       inkscape:connector-curvature="0"
       d="m 22.723,88.089 24.295,0"
       style="fill:none;stroke:#000000;stroke-width:2.75679994"
       id="path3041" />
    <path
       inkscape:connector-curvature="0"
       d="m 102.16,101.46 c -2.165,0.72 -2.943,-1.37 -2.415,-3.14 -0.043,-4.261 0.21,-8.548 -0.205,-12.792 -0.706,-2.126 -3.469,-2.044 -5.124,-1.166 -2.325,0.657 -1.856,3.1 -1.787,4.931 0.014,2.298 -0.03,4.596 -0.007,6.894 -2.076,0.686 -2.968,-1.248 -2.404,-2.998 0,-3.762 0,-7.524 0,-11.286 1.343,-0.609 2.701,0.72 2.665,1.249 1.985,-1.258 4.515,-2.374 6.806,-1.175 2.731,1.252 2.541,4.655 2.471,7.177 -0.01,4.101 0,8.204 0,12.306 z"
       style="font-size:26.20000076px;font-style:normal;font-weight:normal;text-anchor:start;fill:#000000;stroke:#000000;stroke-width:0.00431in;font-family:AvantGarde"
       id="path3043" />
    <text
       x="87.8526"
       y="22.9592"
       style="font-size:26.20000076px;font-style:normal;font-weight:normal;text-anchor:start;fill:#000000;stroke:#000000;stroke-width:0.00431in;font-family:AvantGarde"
       id="text3045">E</text>
  </g>
</svg>
